<?xml version="1.0" encoding="utf-8"?>
<svg xmlns="http://www.w3.org/2000/svg" xmlns:xlink="http://www.w3.org/1999/xlink" style="margin: auto; background: rgb(255, 255, 255); display: block; shape-rendering: auto;" width="217px" height="217px" viewBox="0 0 100 100" preserveAspectRatio="xMidYMid">
<g transform="rotate(0 50 50)">
  <rect x="37.5" y="13.5" rx="12.5" ry="7.5" width="25" height="15" fill="#fe718d">
    <animate attributeName="opacity" values="1;0" keyTimes="0;1" dur="0.3194888178913738s" begin="-0.3152289669861555s" repeatCount="indefinite"></animate>
  </rect>
</g><g transform="rotate(4.8 50 50)">
  <rect x="37.5" y="13.5" rx="12.5" ry="7.5" width="25" height="15" fill="#fe718d">
    <animate attributeName="opacity" values="1;0" keyTimes="0;1" dur="0.3194888178913738s" begin="-0.3109691160809372s" repeatCount="indefinite"></animate>
  </rect>
</g><g transform="rotate(9.6 50 50)">
  <rect x="37.5" y="13.5" rx="12.5" ry="7.5" width="25" height="15" fill="#fe718d">
    <animate attributeName="opacity" values="1;0" keyTimes="0;1" dur="0.3194888178913738s" begin="-0.30670926517571884s" repeatCount="indefinite"></animate>
  </rect>
</g><g transform="rotate(14.4 50 50)">
  <rect x="37.5" y="13.5" rx="12.5" ry="7.5" width="25" height="15" fill="#fe718d">
    <animate attributeName="opacity" values="1;0" keyTimes="0;1" dur="0.3194888178913738s" begin="-0.30244941427050054s" repeatCount="indefinite"></animate>
  </rect>
</g><g transform="rotate(19.2 50 50)">
  <rect x="37.5" y="13.5" rx="12.5" ry="7.5" width="25" height="15" fill="#fe718d">
    <animate attributeName="opacity" values="1;0" keyTimes="0;1" dur="0.3194888178913738s" begin="-0.29818956336528224s" repeatCount="indefinite"></animate>
  </rect>
</g><g transform="rotate(24 50 50)">
  <rect x="37.5" y="13.5" rx="12.5" ry="7.5" width="25" height="15" fill="#fe718d">
    <animate attributeName="opacity" values="1;0" keyTimes="0;1" dur="0.3194888178913738s" begin="-0.2939297124600639s" repeatCount="indefinite"></animate>
  </rect>
</g><g transform="rotate(28.8 50 50)">
  <rect x="37.5" y="13.5" rx="12.5" ry="7.5" width="25" height="15" fill="#fe718d">
    <animate attributeName="opacity" values="1;0" keyTimes="0;1" dur="0.3194888178913738s" begin="-0.2896698615548456s" repeatCount="indefinite"></animate>
  </rect>
</g><g transform="rotate(33.6 50 50)">
  <rect x="37.5" y="13.5" rx="12.5" ry="7.5" width="25" height="15" fill="#fe718d">
    <animate attributeName="opacity" values="1;0" keyTimes="0;1" dur="0.3194888178913738s" begin="-0.2854100106496273s" repeatCount="indefinite"></animate>
  </rect>
</g><g transform="rotate(38.4 50 50)">
  <rect x="37.5" y="13.5" rx="12.5" ry="7.5" width="25" height="15" fill="#fe718d">
    <animate attributeName="opacity" values="1;0" keyTimes="0;1" dur="0.3194888178913738s" begin="-0.28115015974440893s" repeatCount="indefinite"></animate>
  </rect>
</g><g transform="rotate(43.2 50 50)">
  <rect x="37.5" y="13.5" rx="12.5" ry="7.5" width="25" height="15" fill="#fe718d">
    <animate attributeName="opacity" values="1;0" keyTimes="0;1" dur="0.3194888178913738s" begin="-0.27689030883919064s" repeatCount="indefinite"></animate>
  </rect>
</g><g transform="rotate(48 50 50)">
  <rect x="37.5" y="13.5" rx="12.5" ry="7.5" width="25" height="15" fill="#fe718d">
    <animate attributeName="opacity" values="1;0" keyTimes="0;1" dur="0.3194888178913738s" begin="-0.27263045793397234s" repeatCount="indefinite"></animate>
  </rect>
</g><g transform="rotate(52.8 50 50)">
  <rect x="37.5" y="13.5" rx="12.5" ry="7.5" width="25" height="15" fill="#fe718d">
    <animate attributeName="opacity" values="1;0" keyTimes="0;1" dur="0.3194888178913738s" begin="-0.268370607028754s" repeatCount="indefinite"></animate>
  </rect>
</g><g transform="rotate(57.6 50 50)">
  <rect x="37.5" y="13.5" rx="12.5" ry="7.5" width="25" height="15" fill="#fe718d">
    <animate attributeName="opacity" values="1;0" keyTimes="0;1" dur="0.3194888178913738s" begin="-0.2641107561235357s" repeatCount="indefinite"></animate>
  </rect>
</g><g transform="rotate(62.4 50 50)">
  <rect x="37.5" y="13.5" rx="12.5" ry="7.5" width="25" height="15" fill="#fe718d">
    <animate attributeName="opacity" values="1;0" keyTimes="0;1" dur="0.3194888178913738s" begin="-0.2598509052183174s" repeatCount="indefinite"></animate>
  </rect>
</g><g transform="rotate(67.2 50 50)">
  <rect x="37.5" y="13.5" rx="12.5" ry="7.5" width="25" height="15" fill="#fe718d">
    <animate attributeName="opacity" values="1;0" keyTimes="0;1" dur="0.3194888178913738s" begin="-0.25559105431309903s" repeatCount="indefinite"></animate>
  </rect>
</g><g transform="rotate(72 50 50)">
  <rect x="37.5" y="13.5" rx="12.5" ry="7.5" width="25" height="15" fill="#fe718d">
    <animate attributeName="opacity" values="1;0" keyTimes="0;1" dur="0.3194888178913738s" begin="-0.25133120340788073s" repeatCount="indefinite"></animate>
  </rect>
</g><g transform="rotate(76.8 50 50)">
  <rect x="37.5" y="13.5" rx="12.5" ry="7.5" width="25" height="15" fill="#fe718d">
    <animate attributeName="opacity" values="1;0" keyTimes="0;1" dur="0.3194888178913738s" begin="-0.2470713525026624s" repeatCount="indefinite"></animate>
  </rect>
</g><g transform="rotate(81.6 50 50)">
  <rect x="37.5" y="13.5" rx="12.5" ry="7.5" width="25" height="15" fill="#fe718d">
    <animate attributeName="opacity" values="1;0" keyTimes="0;1" dur="0.3194888178913738s" begin="-0.24281150159744408s" repeatCount="indefinite"></animate>
  </rect>
</g><g transform="rotate(86.4 50 50)">
  <rect x="37.5" y="13.5" rx="12.5" ry="7.5" width="25" height="15" fill="#fe718d">
    <animate attributeName="opacity" values="1;0" keyTimes="0;1" dur="0.3194888178913738s" begin="-0.23855165069222578s" repeatCount="indefinite"></animate>
  </rect>
</g><g transform="rotate(91.2 50 50)">
  <rect x="37.5" y="13.5" rx="12.5" ry="7.5" width="25" height="15" fill="#fe718d">
    <animate attributeName="opacity" values="1;0" keyTimes="0;1" dur="0.3194888178913738s" begin="-0.23429179978700745s" repeatCount="indefinite"></animate>
  </rect>
</g><g transform="rotate(96 50 50)">
  <rect x="37.5" y="13.5" rx="12.5" ry="7.5" width="25" height="15" fill="#fe718d">
    <animate attributeName="opacity" values="1;0" keyTimes="0;1" dur="0.3194888178913738s" begin="-0.23003194888178913s" repeatCount="indefinite"></animate>
  </rect>
</g><g transform="rotate(100.8 50 50)">
  <rect x="37.5" y="13.5" rx="12.5" ry="7.5" width="25" height="15" fill="#fe718d">
    <animate attributeName="opacity" values="1;0" keyTimes="0;1" dur="0.3194888178913738s" begin="-0.22577209797657083s" repeatCount="indefinite"></animate>
  </rect>
</g><g transform="rotate(105.6 50 50)">
  <rect x="37.5" y="13.5" rx="12.5" ry="7.5" width="25" height="15" fill="#fe718d">
    <animate attributeName="opacity" values="1;0" keyTimes="0;1" dur="0.3194888178913738s" begin="-0.2215122470713525s" repeatCount="indefinite"></animate>
  </rect>
</g><g transform="rotate(110.4 50 50)">
  <rect x="37.5" y="13.5" rx="12.5" ry="7.5" width="25" height="15" fill="#fe718d">
    <animate attributeName="opacity" values="1;0" keyTimes="0;1" dur="0.3194888178913738s" begin="-0.21725239616613418s" repeatCount="indefinite"></animate>
  </rect>
</g><g transform="rotate(115.2 50 50)">
  <rect x="37.5" y="13.5" rx="12.5" ry="7.5" width="25" height="15" fill="#fe718d">
    <animate attributeName="opacity" values="1;0" keyTimes="0;1" dur="0.3194888178913738s" begin="-0.21299254526091588s" repeatCount="indefinite"></animate>
  </rect>
</g><g transform="rotate(120 50 50)">
  <rect x="37.5" y="13.5" rx="12.5" ry="7.5" width="25" height="15" fill="#fe718d">
    <animate attributeName="opacity" values="1;0" keyTimes="0;1" dur="0.3194888178913738s" begin="-0.20873269435569755s" repeatCount="indefinite"></animate>
  </rect>
</g><g transform="rotate(124.8 50 50)">
  <rect x="37.5" y="13.5" rx="12.5" ry="7.5" width="25" height="15" fill="#fe718d">
    <animate attributeName="opacity" values="1;0" keyTimes="0;1" dur="0.3194888178913738s" begin="-0.20447284345047922s" repeatCount="indefinite"></animate>
  </rect>
</g><g transform="rotate(129.6 50 50)">
  <rect x="37.5" y="13.5" rx="12.5" ry="7.5" width="25" height="15" fill="#fe718d">
    <animate attributeName="opacity" values="1;0" keyTimes="0;1" dur="0.3194888178913738s" begin="-0.20021299254526093s" repeatCount="indefinite"></animate>
  </rect>
</g><g transform="rotate(134.4 50 50)">
  <rect x="37.5" y="13.5" rx="12.5" ry="7.5" width="25" height="15" fill="#fe718d">
    <animate attributeName="opacity" values="1;0" keyTimes="0;1" dur="0.3194888178913738s" begin="-0.1959531416400426s" repeatCount="indefinite"></animate>
  </rect>
</g><g transform="rotate(139.2 50 50)">
  <rect x="37.5" y="13.5" rx="12.5" ry="7.5" width="25" height="15" fill="#fe718d">
    <animate attributeName="opacity" values="1;0" keyTimes="0;1" dur="0.3194888178913738s" begin="-0.19169329073482427s" repeatCount="indefinite"></animate>
  </rect>
</g><g transform="rotate(144 50 50)">
  <rect x="37.5" y="13.5" rx="12.5" ry="7.5" width="25" height="15" fill="#fe718d">
    <animate attributeName="opacity" values="1;0" keyTimes="0;1" dur="0.3194888178913738s" begin="-0.18743343982960597s" repeatCount="indefinite"></animate>
  </rect>
</g><g transform="rotate(148.8 50 50)">
  <rect x="37.5" y="13.5" rx="12.5" ry="7.5" width="25" height="15" fill="#fe718d">
    <animate attributeName="opacity" values="1;0" keyTimes="0;1" dur="0.3194888178913738s" begin="-0.18317358892438765s" repeatCount="indefinite"></animate>
  </rect>
</g><g transform="rotate(153.6 50 50)">
  <rect x="37.5" y="13.5" rx="12.5" ry="7.5" width="25" height="15" fill="#fe718d">
    <animate attributeName="opacity" values="1;0" keyTimes="0;1" dur="0.3194888178913738s" begin="-0.17891373801916932s" repeatCount="indefinite"></animate>
  </rect>
</g><g transform="rotate(158.4 50 50)">
  <rect x="37.5" y="13.5" rx="12.5" ry="7.5" width="25" height="15" fill="#fe718d">
    <animate attributeName="opacity" values="1;0" keyTimes="0;1" dur="0.3194888178913738s" begin="-0.17465388711395102s" repeatCount="indefinite"></animate>
  </rect>
</g><g transform="rotate(163.2 50 50)">
  <rect x="37.5" y="13.5" rx="12.5" ry="7.5" width="25" height="15" fill="#fe718d">
    <animate attributeName="opacity" values="1;0" keyTimes="0;1" dur="0.3194888178913738s" begin="-0.1703940362087327s" repeatCount="indefinite"></animate>
  </rect>
</g><g transform="rotate(168 50 50)">
  <rect x="37.5" y="13.5" rx="12.5" ry="7.5" width="25" height="15" fill="#fe718d">
    <animate attributeName="opacity" values="1;0" keyTimes="0;1" dur="0.3194888178913738s" begin="-0.16613418530351437s" repeatCount="indefinite"></animate>
  </rect>
</g><g transform="rotate(172.8 50 50)">
  <rect x="37.5" y="13.5" rx="12.5" ry="7.5" width="25" height="15" fill="#fe718d">
    <animate attributeName="opacity" values="1;0" keyTimes="0;1" dur="0.3194888178913738s" begin="-0.16187433439829607s" repeatCount="indefinite"></animate>
  </rect>
</g><g transform="rotate(177.6 50 50)">
  <rect x="37.5" y="13.5" rx="12.5" ry="7.5" width="25" height="15" fill="#fe718d">
    <animate attributeName="opacity" values="1;0" keyTimes="0;1" dur="0.3194888178913738s" begin="-0.15761448349307774s" repeatCount="indefinite"></animate>
  </rect>
</g><g transform="rotate(182.4 50 50)">
  <rect x="37.5" y="13.5" rx="12.5" ry="7.5" width="25" height="15" fill="#fe718d">
    <animate attributeName="opacity" values="1;0" keyTimes="0;1" dur="0.3194888178913738s" begin="-0.15335463258785942s" repeatCount="indefinite"></animate>
  </rect>
</g><g transform="rotate(187.2 50 50)">
  <rect x="37.5" y="13.5" rx="12.5" ry="7.5" width="25" height="15" fill="#fe718d">
    <animate attributeName="opacity" values="1;0" keyTimes="0;1" dur="0.3194888178913738s" begin="-0.14909478168264112s" repeatCount="indefinite"></animate>
  </rect>
</g><g transform="rotate(192 50 50)">
  <rect x="37.5" y="13.5" rx="12.5" ry="7.5" width="25" height="15" fill="#fe718d">
    <animate attributeName="opacity" values="1;0" keyTimes="0;1" dur="0.3194888178913738s" begin="-0.1448349307774228s" repeatCount="indefinite"></animate>
  </rect>
</g><g transform="rotate(196.8 50 50)">
  <rect x="37.5" y="13.5" rx="12.5" ry="7.5" width="25" height="15" fill="#fe718d">
    <animate attributeName="opacity" values="1;0" keyTimes="0;1" dur="0.3194888178913738s" begin="-0.14057507987220447s" repeatCount="indefinite"></animate>
  </rect>
</g><g transform="rotate(201.6 50 50)">
  <rect x="37.5" y="13.5" rx="12.5" ry="7.5" width="25" height="15" fill="#fe718d">
    <animate attributeName="opacity" values="1;0" keyTimes="0;1" dur="0.3194888178913738s" begin="-0.13631522896698617s" repeatCount="indefinite"></animate>
  </rect>
</g><g transform="rotate(206.4 50 50)">
  <rect x="37.5" y="13.5" rx="12.5" ry="7.5" width="25" height="15" fill="#fe718d">
    <animate attributeName="opacity" values="1;0" keyTimes="0;1" dur="0.3194888178913738s" begin="-0.13205537806176784s" repeatCount="indefinite"></animate>
  </rect>
</g><g transform="rotate(211.2 50 50)">
  <rect x="37.5" y="13.5" rx="12.5" ry="7.5" width="25" height="15" fill="#fe718d">
    <animate attributeName="opacity" values="1;0" keyTimes="0;1" dur="0.3194888178913738s" begin="-0.12779552715654952s" repeatCount="indefinite"></animate>
  </rect>
</g><g transform="rotate(216 50 50)">
  <rect x="37.5" y="13.5" rx="12.5" ry="7.5" width="25" height="15" fill="#fe718d">
    <animate attributeName="opacity" values="1;0" keyTimes="0;1" dur="0.3194888178913738s" begin="-0.1235356762513312s" repeatCount="indefinite"></animate>
  </rect>
</g><g transform="rotate(220.8 50 50)">
  <rect x="37.5" y="13.5" rx="12.5" ry="7.5" width="25" height="15" fill="#fe718d">
    <animate attributeName="opacity" values="1;0" keyTimes="0;1" dur="0.3194888178913738s" begin="-0.11927582534611289s" repeatCount="indefinite"></animate>
  </rect>
</g><g transform="rotate(225.6 50 50)">
  <rect x="37.5" y="13.5" rx="12.5" ry="7.5" width="25" height="15" fill="#fe718d">
    <animate attributeName="opacity" values="1;0" keyTimes="0;1" dur="0.3194888178913738s" begin="-0.11501597444089456s" repeatCount="indefinite"></animate>
  </rect>
</g><g transform="rotate(230.4 50 50)">
  <rect x="37.5" y="13.5" rx="12.5" ry="7.5" width="25" height="15" fill="#fe718d">
    <animate attributeName="opacity" values="1;0" keyTimes="0;1" dur="0.3194888178913738s" begin="-0.11075612353567625s" repeatCount="indefinite"></animate>
  </rect>
</g><g transform="rotate(235.2 50 50)">
  <rect x="37.5" y="13.5" rx="12.5" ry="7.5" width="25" height="15" fill="#fe718d">
    <animate attributeName="opacity" values="1;0" keyTimes="0;1" dur="0.3194888178913738s" begin="-0.10649627263045794s" repeatCount="indefinite"></animate>
  </rect>
</g><g transform="rotate(240 50 50)">
  <rect x="37.5" y="13.5" rx="12.5" ry="7.5" width="25" height="15" fill="#fe718d">
    <animate attributeName="opacity" values="1;0" keyTimes="0;1" dur="0.3194888178913738s" begin="-0.10223642172523961s" repeatCount="indefinite"></animate>
  </rect>
</g><g transform="rotate(244.8 50 50)">
  <rect x="37.5" y="13.5" rx="12.5" ry="7.5" width="25" height="15" fill="#fe718d">
    <animate attributeName="opacity" values="1;0" keyTimes="0;1" dur="0.3194888178913738s" begin="-0.0979765708200213s" repeatCount="indefinite"></animate>
  </rect>
</g><g transform="rotate(249.6 50 50)">
  <rect x="37.5" y="13.5" rx="12.5" ry="7.5" width="25" height="15" fill="#fe718d">
    <animate attributeName="opacity" values="1;0" keyTimes="0;1" dur="0.3194888178913738s" begin="-0.09371671991480299s" repeatCount="indefinite"></animate>
  </rect>
</g><g transform="rotate(254.4 50 50)">
  <rect x="37.5" y="13.5" rx="12.5" ry="7.5" width="25" height="15" fill="#fe718d">
    <animate attributeName="opacity" values="1;0" keyTimes="0;1" dur="0.3194888178913738s" begin="-0.08945686900958466s" repeatCount="indefinite"></animate>
  </rect>
</g><g transform="rotate(259.2 50 50)">
  <rect x="37.5" y="13.5" rx="12.5" ry="7.5" width="25" height="15" fill="#fe718d">
    <animate attributeName="opacity" values="1;0" keyTimes="0;1" dur="0.3194888178913738s" begin="-0.08519701810436635s" repeatCount="indefinite"></animate>
  </rect>
</g><g transform="rotate(264 50 50)">
  <rect x="37.5" y="13.5" rx="12.5" ry="7.5" width="25" height="15" fill="#fe718d">
    <animate attributeName="opacity" values="1;0" keyTimes="0;1" dur="0.3194888178913738s" begin="-0.08093716719914804s" repeatCount="indefinite"></animate>
  </rect>
</g><g transform="rotate(268.8 50 50)">
  <rect x="37.5" y="13.5" rx="12.5" ry="7.5" width="25" height="15" fill="#fe718d">
    <animate attributeName="opacity" values="1;0" keyTimes="0;1" dur="0.3194888178913738s" begin="-0.07667731629392971s" repeatCount="indefinite"></animate>
  </rect>
</g><g transform="rotate(273.6 50 50)">
  <rect x="37.5" y="13.5" rx="12.5" ry="7.5" width="25" height="15" fill="#fe718d">
    <animate attributeName="opacity" values="1;0" keyTimes="0;1" dur="0.3194888178913738s" begin="-0.0724174653887114s" repeatCount="indefinite"></animate>
  </rect>
</g><g transform="rotate(278.4 50 50)">
  <rect x="37.5" y="13.5" rx="12.5" ry="7.5" width="25" height="15" fill="#fe718d">
    <animate attributeName="opacity" values="1;0" keyTimes="0;1" dur="0.3194888178913738s" begin="-0.06815761448349308s" repeatCount="indefinite"></animate>
  </rect>
</g><g transform="rotate(283.2 50 50)">
  <rect x="37.5" y="13.5" rx="12.5" ry="7.5" width="25" height="15" fill="#fe718d">
    <animate attributeName="opacity" values="1;0" keyTimes="0;1" dur="0.3194888178913738s" begin="-0.06389776357827476s" repeatCount="indefinite"></animate>
  </rect>
</g><g transform="rotate(288 50 50)">
  <rect x="37.5" y="13.5" rx="12.5" ry="7.5" width="25" height="15" fill="#fe718d">
    <animate attributeName="opacity" values="1;0" keyTimes="0;1" dur="0.3194888178913738s" begin="-0.059637912673056445s" repeatCount="indefinite"></animate>
  </rect>
</g><g transform="rotate(292.8 50 50)">
  <rect x="37.5" y="13.5" rx="12.5" ry="7.5" width="25" height="15" fill="#fe718d">
    <animate attributeName="opacity" values="1;0" keyTimes="0;1" dur="0.3194888178913738s" begin="-0.055378061767838126s" repeatCount="indefinite"></animate>
  </rect>
</g><g transform="rotate(297.6 50 50)">
  <rect x="37.5" y="13.5" rx="12.5" ry="7.5" width="25" height="15" fill="#fe718d">
    <animate attributeName="opacity" values="1;0" keyTimes="0;1" dur="0.3194888178913738s" begin="-0.051118210862619806s" repeatCount="indefinite"></animate>
  </rect>
</g><g transform="rotate(302.4 50 50)">
  <rect x="37.5" y="13.5" rx="12.5" ry="7.5" width="25" height="15" fill="#fe718d">
    <animate attributeName="opacity" values="1;0" keyTimes="0;1" dur="0.3194888178913738s" begin="-0.046858359957401494s" repeatCount="indefinite"></animate>
  </rect>
</g><g transform="rotate(307.2 50 50)">
  <rect x="37.5" y="13.5" rx="12.5" ry="7.5" width="25" height="15" fill="#fe718d">
    <animate attributeName="opacity" values="1;0" keyTimes="0;1" dur="0.3194888178913738s" begin="-0.042598509052183174s" repeatCount="indefinite"></animate>
  </rect>
</g><g transform="rotate(312 50 50)">
  <rect x="37.5" y="13.5" rx="12.5" ry="7.5" width="25" height="15" fill="#fe718d">
    <animate attributeName="opacity" values="1;0" keyTimes="0;1" dur="0.3194888178913738s" begin="-0.038338658146964855s" repeatCount="indefinite"></animate>
  </rect>
</g><g transform="rotate(316.8 50 50)">
  <rect x="37.5" y="13.5" rx="12.5" ry="7.5" width="25" height="15" fill="#fe718d">
    <animate attributeName="opacity" values="1;0" keyTimes="0;1" dur="0.3194888178913738s" begin="-0.03407880724174654s" repeatCount="indefinite"></animate>
  </rect>
</g><g transform="rotate(321.6 50 50)">
  <rect x="37.5" y="13.5" rx="12.5" ry="7.5" width="25" height="15" fill="#fe718d">
    <animate attributeName="opacity" values="1;0" keyTimes="0;1" dur="0.3194888178913738s" begin="-0.029818956336528223s" repeatCount="indefinite"></animate>
  </rect>
</g><g transform="rotate(326.4 50 50)">
  <rect x="37.5" y="13.5" rx="12.5" ry="7.5" width="25" height="15" fill="#fe718d">
    <animate attributeName="opacity" values="1;0" keyTimes="0;1" dur="0.3194888178913738s" begin="-0.025559105431309903s" repeatCount="indefinite"></animate>
  </rect>
</g><g transform="rotate(331.2 50 50)">
  <rect x="37.5" y="13.5" rx="12.5" ry="7.5" width="25" height="15" fill="#fe718d">
    <animate attributeName="opacity" values="1;0" keyTimes="0;1" dur="0.3194888178913738s" begin="-0.021299254526091587s" repeatCount="indefinite"></animate>
  </rect>
</g><g transform="rotate(336 50 50)">
  <rect x="37.5" y="13.5" rx="12.5" ry="7.5" width="25" height="15" fill="#fe718d">
    <animate attributeName="opacity" values="1;0" keyTimes="0;1" dur="0.3194888178913738s" begin="-0.01703940362087327s" repeatCount="indefinite"></animate>
  </rect>
</g><g transform="rotate(340.8 50 50)">
  <rect x="37.5" y="13.5" rx="12.5" ry="7.5" width="25" height="15" fill="#fe718d">
    <animate attributeName="opacity" values="1;0" keyTimes="0;1" dur="0.3194888178913738s" begin="-0.012779552715654952s" repeatCount="indefinite"></animate>
  </rect>
</g><g transform="rotate(345.6 50 50)">
  <rect x="37.5" y="13.5" rx="12.5" ry="7.5" width="25" height="15" fill="#fe718d">
    <animate attributeName="opacity" values="1;0" keyTimes="0;1" dur="0.3194888178913738s" begin="-0.008519701810436636s" repeatCount="indefinite"></animate>
  </rect>
</g><g transform="rotate(350.4 50 50)">
  <rect x="37.5" y="13.5" rx="12.5" ry="7.5" width="25" height="15" fill="#fe718d">
    <animate attributeName="opacity" values="1;0" keyTimes="0;1" dur="0.3194888178913738s" begin="-0.004259850905218318s" repeatCount="indefinite"></animate>
  </rect>
</g><g transform="rotate(355.2 50 50)">
  <rect x="37.5" y="13.5" rx="12.5" ry="7.5" width="25" height="15" fill="#fe718d">
    <animate attributeName="opacity" values="1;0" keyTimes="0;1" dur="0.3194888178913738s" begin="0s" repeatCount="indefinite"></animate>
  </rect>
</g>
<!-- [ldio] generated by https://loading.io/ --></svg>